PathFileType	4	(X/Y/Z)	D:/2025/Ayumi_22_01_2025/22-01-2025/static_00_hjc.trc	
DataRate	CameraRate	NumFrames	NumMarkers	Units	OrigDataRate	OrigDataStartFrame	OrigNumFrames	
200.00	200.00	4	66	mm	200.00	316	352	
Frame#	Time	FHD			LBHD			RBHD			LBAR			RASI			RSACR			LSACR			LASI			USACR			C7			CLAV			T10			RSHO			LSHO			LTHI1			LTHI3			LTHI2			LLFC			LTIB1			LTIB2			LTIB3			LMMAL			LLMAL			LHEE			LMT1			LMT5			LMT3			RTHI1			RTHI2			RTHI3			RLFC			RMFC			RTIB1			RTIB3			RTIB2			RLMAL			RMMAL			RHEE			RMT5			RMT1			RMT3			LMEP			LLEP			LDUPA			LMUPA			LUUPA			LUL			LRAD			LRFIN			RUL			RRAD			RUFIN			RMEP			RLEP			RMUPA			RDUPA			RUUPA			LMFC			RBAR			*59			LAJC			RAJC			LKJC			RKJC			LHJC			RHJC			
		X1	Y1	Z1	X2	Y2	Z2	X3	Y3	Z3	X4	Y4	Z4	X5	Y5	Z5	X6	Y6	Z6	X7	Y7	Z7	X8	Y8	Z8	X9	Y9	Z9	X10	Y10	Z10	X11	Y11	Z11	X12	Y12	Z12	X13	Y13	Z13	X14	Y14	Z14	X15	Y15	Z15	X16	Y16	Z16	X17	Y17	Z17	X18	Y18	Z18	X19	Y19	Z19	X20	Y20	Z20	X21	Y21	Z21	X22	Y22	Z22	X23	Y23	Z23	X24	Y24	Z24	X25	Y25	Z25	X26	Y26	Z26	X27	Y27	Z27	X28	Y28	Z28	X29	Y29	Z29	X30	Y30	Z30	X31	Y31	Z31	X32	Y32	Z32	X33	Y33	Z33	X34	Y34	Z34	X35	Y35	Z35	X36	Y36	Z36	X37	Y37	Z37	X38	Y38	Z38	X39	Y39	Z39	X40	Y40	Z40	X41	Y41	Z41	X42	Y42	Z42	X43	Y43	Z43	X44	Y44	Z44	X45	Y45	Z45	X46	Y46	Z46	X47	Y47	Z47	X48	Y48	Z48	X49	Y49	Z49	X50	Y50	Z50	X51	Y51	Z51	X52	Y52	Z52	X53	Y53	Z53	X54	Y54	Z54	X55	Y55	Z55	X56	Y56	Z56	X57	Y57	Z57	X58	Y58	Z58	X59	Y59	Z59	X60	Y60	Z60	X61	Y61	Z61	X62	Y62	Z62	X63	Y63	Z63	X64	Y64	Z64	X65	Y65	Z65	X66	Y66	Z66	

309	1.540	110.09169	967.11243	1611.97119	128.27748	906.74866	1594.88379	146.57111	1037.77087	1583.89844	1041.02698	2031.62561	20.01901	162.02028	1102.43103	927.47137	322.10733	1014.82843	958.76819	319.18005	940.83398	960.44598	148.50166	864.90137	912.56030	314.26135	978.79175	970.34540	298.37091	963.12347	1400.99670	163.72209	980.51447	1329.31921	320.06964	972.96906	1117.22217	237.80116	1111.83215	1406.63037	216.88521	830.84869	1398.86499	236.53133	807.16174	606.38269	261.19238	818.36975	546.09662	210.55869	817.68567	545.74359	229.36203	840.40979	449.21332	256.34424	819.41321	233.55049	306.61829	815.31378	232.52080	279.91904	825.62170	173.46126	284.27197	914.66504	71.82407	297.88867	843.36090	69.61491	340.99677	881.73126	33.97342	143.87054	873.67407	39.16897	169.43747	796.97284	26.83051	144.84145	837.71442	37.23824	257.34915	1156.24695	607.94604	229.99921	1148.98645	548.63037	281.19714	1146.81799	547.67902	240.01115	1125.17334	454.97333	247.46953	1023.99835	449.30261	271.26639	1159.59851	277.04703	294.21756	1155.43896	215.41852	321.81451	1160.38525	275.27216	307.55887	1134.87439	73.62808	276.81445	1063.92163	75.58974	351.57697	1095.30554	28.46202	178.76741	1179.41882	29.33899	151.09802	1115.52429	37.72187	156.16989	1148.26123	35.99750	265.37796	1373.76294	1278.26758	304.96317	1376.68591	1337.89221	314.36945	1276.94336	1350.16321	311.12302	1216.69458	1361.96802	329.19550	1206.93250	1316.60242	233.69873	326.19080	1336.03430	169.98918	318.73611	1354.31750	181.49634	244.46275	1350.98499	285.25876	1610.90332	1340.37720	225.39297	1612.30750	1357.17542	224.75565	1686.03992	1354.08472	203.59016	580.29077	1279.59753	254.62785	562.95532	1330.74829	253.82666	644.02765	1362.45532	283.30490	639.62488	1322.68372	269.83157	703.99738	1368.19214	241.86548	939.10620	442.23547							291.08032	879.01297	70.71949	292.18666	1099.39801	74.60891	235.61375	889.75800	445.72440	243.74034	1074.58585	452.13797	233.84086	902.86768	936.50314	242.06380	1058.62973	943.11978 
310	1.545	110.13608	967.07062	1612.01843	128.33589	906.74225	1594.86987	146.61537	1037.76599	1583.90442	1041.02649	2031.64270	20.01930	162.00818	1102.39368	927.47400	322.12051	1014.81775	958.74213	319.19913	940.82117	960.43573	148.48514	864.90466	912.56940	314.28458	978.78510	970.32538	298.41861	963.12537	1400.98914	163.75482	980.51654	1329.32629	320.05841	972.96106	1117.22864	237.86058	1111.82007	1406.60718	216.91875	830.84680	1398.84924	236.51424	807.14868	606.37244	261.19772	818.36444	546.10590	210.54616	817.67145	545.73645	229.35077	840.41144	449.20337	256.35803	819.40753	233.54213	306.58847	815.31323	232.51566	279.92172	825.61884	173.45641	284.26587	914.65521	71.81939	297.87729	843.36664	69.60212	340.99097	881.71991	33.96914	143.86179	873.68188	39.15068	169.43045	796.97711	26.82942	144.84029	837.73291	37.22902	257.35751	1156.23828	607.92926	229.99159	1148.96497	548.63849	281.19675	1146.80908	547.66583	239.99437	1125.16113	454.98431	247.47105	1023.98602	449.28659	271.27496	1159.59290	277.03775	294.20859	1155.42261	215.40508	321.79697	1160.33569	275.22333	307.55615	1134.88733	73.62814	276.83035	1063.92627	75.59606	351.57437	1095.31311	28.45442	178.77759	1179.43579	29.32560	151.09584	1115.53137	37.69679	156.16913	1148.26367	35.99587	265.37457	1373.76953	1278.23669	304.99973	1376.69604	1337.86060	314.39398	1276.93176	1350.15564	311.17709	1216.81116	1361.66125	329.21582	1206.94019	1316.56665	233.71555	326.19296	1336.05554	169.98802	318.73413	1354.35852	181.52309	244.45844	1350.99683	285.30307	1610.90576	1340.32312	225.43092	1612.33032	1357.14429	224.83578	1686.10095	1353.96021	203.62213	580.28552	1279.58484	254.65163	562.97150	1330.73572	253.86978	644.04224	1362.41943	283.33804	639.61926	1322.66309	269.86432	703.98865	1368.16980	241.87613	939.08240	442.21524							291.07158	879.01093	70.71075	292.19325	1099.40680	74.61210	235.61345	889.74692	445.70930	243.73271	1074.57358	452.13545	233.84213	902.86292	936.50256	242.06435	1058.60571	943.10806 
311	1.550	110.22387	967.04938	1612.01404	128.38251	906.72919	1594.92749	146.67737	1037.75293	1583.91504	1040.99121	2031.52075	20.01295	161.99942	1102.41504	927.46393	322.13004	1014.80005	958.73029	319.18445	940.81506	960.43341	148.49738	864.90039	912.55347	314.28659	978.78186	970.31610	298.42999	963.12524	1401.00952	163.77856	980.52649	1329.34204	320.09497	972.95801	1117.22449	237.91716	1111.83630	1406.59595	216.96268	830.85577	1398.86414	236.53522	807.13013	606.39709	261.18448	818.35693	546.08929	210.54518	817.67554	545.74347	229.34480	840.40350	449.20874	256.33746	819.41315	233.53391	306.63126	815.31683	232.50996	279.93024	825.60651	173.43367	284.27994	914.64447	71.82442	297.89023	843.36053	69.59817	340.99716	881.75085	33.96313	143.86349	873.68933	39.16238	169.43422	796.98248	26.83453	144.84731	837.72473	37.22352	257.32361	1156.20056	607.95990	229.98685	1148.99084	548.61157	281.20605	1146.78918	547.65887	239.99596	1125.15662	454.96512	247.46449	1023.97162	449.27609	271.25885	1159.58435	277.04776	294.21332	1155.42334	215.39502	322.04529	1160.34570	275.01190	307.55588	1134.88159	73.62858	276.81140	1063.91809	75.59333	351.58597	1095.31982	28.43644	178.76392	1179.40625	29.35079	151.10161	1115.52454	37.71912	156.16891	1148.26575	36.00931	265.37927	1373.78381	1278.21594	305.02521	1376.70190	1337.83215	314.39795	1276.89404	1350.21155	311.21332	1216.82288	1361.62109	329.25702	1206.94666	1316.49011	233.72810	326.20383	1336.04199	170.01778	318.73001	1354.34167	181.52213	244.47935	1351.01587	285.32904	1610.91064	1340.28687	225.48242	1612.34998	1357.10486	224.86598	1686.10913	1353.92200	203.62904	580.28870	1279.58801	254.66397	562.96185	1330.72119	253.89915	644.03558	1362.41345	283.35919	639.62506	1322.65076	269.90732	703.98645	1368.14661	241.88304	939.08105	442.21655							291.08508	879.00250	70.71130	292.18364	1099.39984	74.61095	235.61392	889.74228	445.71265	243.73022	1074.56412	452.12061	233.84091	902.85773	936.49344	242.06473	1058.60754	943.09711 
312	1.555	110.28996	967.10016	1611.96680	128.40378	906.75598	1594.92065	146.70763	1037.75989	1583.92053	1040.96509	2031.52039	20.06225	162.00487	1102.38611	927.44269	322.27719	1014.55725	959.42456	319.20508	940.82166	960.40717	148.50566	864.86945	912.57617	314.29095	978.75177	970.26770	298.48856	963.12500	1400.97021	163.81270	980.52991	1329.34583	320.08194	972.94147	1117.24158	237.97621	1111.83936	1406.58374	217.00481	830.85059	1398.86938	236.53018	807.11456	606.39093	261.16544	818.32440	546.06793	210.53368	817.66364	545.75214	229.32770	840.38940	449.20306	256.46558	818.66437	233.62692	306.60077	815.32050	232.50111	279.90607	825.60925	173.43326	284.28995	914.65686	71.83088	297.88797	843.36176	69.60582	340.99701	881.72235	33.96412	143.85568	873.68597	39.17394	169.44203	796.98248	26.82376	144.84222	837.72266	37.23423	257.32193	1156.18652	607.96082	229.96707	1148.99475	548.60815	281.20566	1146.78943	547.64557	239.98972	1125.15527	454.96829	247.46719	1023.96588	449.27679	271.26196	1159.59570	277.02197	294.21362	1155.42041	215.40509	322.05539	1160.35754	274.99411	307.56042	1134.88354	73.62262	276.81454	1063.91455	75.61281	351.58267	1095.32410	28.43228	178.76396	1179.40955	29.36689	151.11035	1115.54077	37.70535	156.17235	1148.26526	35.99244	265.39508	1373.78186	1278.18921	305.03760	1376.71143	1337.80090	314.42816	1276.88538	1350.21179	311.25644	1216.83215	1361.57788	329.27756	1206.95288	1316.46643	233.74332	326.21173	1336.04065	170.02145	318.75790	1354.33765	181.55403	244.47093	1351.01917	285.35138	1610.91650	1340.27380	225.52014	1612.37134	1357.07910	224.91858	1686.16284	1353.83350	203.67220	580.28467	1279.56982	254.69522	562.96216	1330.72375	253.91551	644.05170	1362.41003	283.37836	639.62531	1322.65161	269.91589	704.00232	1368.10400	241.84732	939.09528	442.23975							291.08896	879.00931	70.71835	292.18748	1099.39905	74.61771	235.58751	889.74234	445.72141	243.72845	1074.56058	452.12254	233.85537	902.84555	936.49167	242.14103	1058.47168	943.43362 
